<svg width="56" height="41" viewBox="0 0 56 41" fill="none" xmlns="http://www.w3.org/2000/svg">
<path d="M25.812 0C25.09 0.722 24.564 1.6 23.942 2.966C23.318 4.33 22.756 6.052 22.75 7.962C22.744 9.872 23.404 12.03 25.126 13.676C26.846 15.322 29.44 16.408 33.098 16.876C36.148 17.264 38.142 17.804 39.258 18.474C40.374 19.142 40.838 19.812 41.198 21.45L45.106 20.586C44.586 18.226 43.306 16.236 41.316 15.044C39.328 13.85 36.86 13.322 33.606 12.906C30.49 12.51 28.78 11.636 27.89 10.786C27.002 9.934 26.746 9.062 26.75 7.974C26.754 6.884 27.122 5.632 27.582 4.626C28.042 3.618 28.75 2.718 28.642 2.828L25.812 0V0ZM36.86 0.639999V4.64C38.1 4.64 39.746 4.794 40.964 5.484C42.184 6.176 43.194 7.232 43.442 10.156L43.594 11.988H45.434C46.466 11.988 48.628 12.322 49.694 13.254C50.228 13.72 50.59 14.258 50.714 15.306C50.84 16.352 50.654 17.962 49.71 20.254L53.41 21.778C54.526 19.062 54.922 16.792 54.688 14.832C54.4936 13.0626 53.6516 11.4277 52.324 10.242C50.504 8.652 48.516 8.288 46.906 8.152C46.214 5.262 44.8 3.06 42.938 2.004C40.694 0.734 38.344 0.642 36.858 0.642L36.86 0.639999ZM56 24.016L0 26.016V38.016L56 40.016V24.016ZM52 28.16V35.872L48 35.726V28.306L52 28.16V28.16ZM44 28.446V35.586L40 35.442V28.59L44 28.446ZM36 28.73V35.302L4 34.156V29.876L36 28.73Z" fill="#2C497F"/>
</svg>
